<?xml version="1.0" encoding="UTF-8" standalone="no"?>
<svg
   xmlns:dc="http://purl.org/dc/elements/1.1/"
   xmlns:cc="http://creativecommons.org/ns#"
   xmlns:rdf="http://www.w3.org/1999/02/22-rdf-syntax-ns#"
   xmlns:svg="http://www.w3.org/2000/svg"
   xmlns="http://www.w3.org/2000/svg"
   xmlns:sodipodi="http://sodipodi.sourceforge.net/DTD/sodipodi-0.dtd"
   xmlns:inkscape="http://www.inkscape.org/namespaces/inkscape"
   version="1.0"
   width="613pt"
   height="613pt"
   viewBox="0 0 613 613"
   preserveAspectRatio="xMidYMid meet"
   id="svg3708"
   sodipodi:docname="logo-negative.svg"
   inkscape:export-xdpi="4.23"
   inkscape:export-ydpi="4.23"
   inkscape:version="0.91 r13725"
   inkscape:export-filename="/bc/lilium/lilium/static/img/lilium-logo-white-36.png">
  <defs
     id="defs3712" />
  <sodipodi:namedview
     pagecolor="#ffffff"
     bordercolor="#666666"
     borderopacity="1"
     objecttolerance="10"
     gridtolerance="10"
     guidetolerance="10"
     inkscape:pageopacity="0"
     inkscape:pageshadow="2"
     inkscape:window-width="1920"
     inkscape:window-height="1027"
     id="namedview3710"
     showgrid="false"
     inkscape:zoom="0.1767767"
     inkscape:cx="-1854.9378"
     inkscape:cy="-117.18233"
     inkscape:window-x="0"
     inkscape:window-y="0"
     inkscape:window-maximized="1"
     inkscape:current-layer="svg3708" />
  <metadata
     id="metadata3700">
Created by potrace 1.15, written by Peter Selinger 2001-2017
<rdf:RDF>
  <cc:Work
     rdf:about="">
    <dc:format>image/svg+xml</dc:format>
    <dc:type
       rdf:resource="http://purl.org/dc/dcmitype/StillImage" />
    <dc:title />
  </cc:Work>
</rdf:RDF>
</metadata>
  <path
     style="opacity:1;fill:#3498db;fill-opacity:1;stroke:none;stroke-width:0.88975906;stroke-miterlimit:4;stroke-dasharray:none;stroke-opacity:1"
     id="path4135"
     sodipodi:type="arc"
     sodipodi:cx="306.5242"
     sodipodi:cy="306.5144"
     sodipodi:rx="306.48441"
     sodipodi:ry="306.48441"
     sodipodi:start="0"
     sodipodi:end="6.2753313"
     sodipodi:open="true"
     d="M 613.00861,306.5144 A 306.48441,306.48441 0 0 1 307.12598,612.99822 306.48441,306.48441 0 0 1 0.04215812,307.71797 306.48441,306.48441 0 0 1 304.71886,0.03531597 306.48441,306.48441 0 0 1 612.99915,304.1073"
     inkscape:export-filename="/bc/lilium/lilium/static/img/lilium-logo-negative-72.png"
     inkscape:export-xdpi="8.46"
     inkscape:export-ydpi="8.46" />
  <g
     transform="matrix(0.08709475,0,0,-0.08710522,25.463204,567.17678)"
     id="g3706"
     style="fill:#ffffff;fill-opacity:1;stroke:none"
     inkscape:export-filename="/bc/lilium/lilium/static/img/lilium-logo-negative-72.png"
     inkscape:export-xdpi="8.46"
     inkscape:export-ydpi="8.46">
    <path
       d="m 3302,5838 c -20,-34 -85,-125 -143,-202 -258,-344 -358,-500 -460,-711 -78,-164 -129,-305 -169,-467 -55,-224 -65,-318 -65,-618 0,-382 22,-502 179,-991 130,-405 162,-541 172,-749 l 6,-115 -48,65 c -167,227 -398,473 -579,616 -309,245 -620,374 -898,374 -137,0 -233,-22 -357,-82 -93,-45 -115,-61 -195,-142 -129,-131 -201,-267 -240,-451 -24,-116 -23,-314 3,-435 53,-243 121,-371 356,-665 97,-123 155,-212 186,-287 13,-32 34,-67 46,-79 20,-19 23,-19 38,-4 27,28 20,120 -21,273 -36,132 -37,143 -37,307 -1,192 12,256 82,390 55,105 173,220 282,273 124,61 193,76 335,75 263,-1 490,-112 715,-351 113,-118 268,-310 391,-484 51,-71 95,-131 99,-133 4,-3 22,35 40,83 179,480 364,828 661,1242 459,640 571,916 556,1360 -13,338 -75,624 -202,920 -92,216 -240,451 -501,795 -50,66 -103,143 -119,170 -33,58 -54,85 -67,85 -5,0 -26,-28 -46,-62 z"
       id="path3702"
       style="fill:#ffffff;fill-opacity:1;stroke:none"
       inkscape:connector-curvature="0" />
    <path
       d="M 4991,3025 C 4559,2949 4079,2594 3690,2065 3605,1948 3540,1847 3431,1656 2964,840 2880,258 3209,106 c 38,-17 64,-21 151,-21 89,1 112,4 152,24 155,75 205,295 88,382 -14,11 -50,24 -80,31 -117,24 -181,-15 -226,-140 -15,-42 -34,-85 -43,-95 -21,-25 -60,-18 -85,16 -31,42 -30,209 2,326 74,271 253,615 447,856 186,231 425,470 562,562 172,115 307,157 503,158 155,0 218,-13 339,-73 107,-52 232,-177 283,-282 66,-137 73,-174 72,-375 0,-175 -1,-184 -37,-317 -40,-148 -46,-221 -22,-255 24,-34 41,-19 86,74 49,105 84,156 232,346 179,228 251,360 297,545 81,326 26,639 -156,878 -96,126 -208,205 -364,255 -117,38 -284,47 -419,24 z"
       id="path3704"
       style="fill:#ffffff;fill-opacity:1;stroke:none"
       inkscape:connector-curvature="0" />
  </g>
</svg>
