<?xml version="1.0" standalone="no"?>
<!DOCTYPE svg PUBLIC "-//W3C//DTD SVG 20010904//EN"
 "http://www.w3.org/TR/2001/REC-SVG-20010904/DTD/svg10.dtd">
<svg version="1.0" xmlns="http://www.w3.org/2000/svg"
 width="633.000000pt" height="613.000000pt" viewBox="0 0 633.000000 613.000000"
 preserveAspectRatio="xMidYMid meet">
<metadata>
Created by potrace 1.15, written by Peter Selinger 2001-2017
</metadata>
<g transform="translate(0.000000,613.000000) scale(0.100000,-0.100000)"
fill="#000000" stroke="none">
<path d="M3302 5838 c-20 -34 -85 -125 -143 -202 -258 -344 -358 -500 -460
-711 -78 -164 -129 -305 -169 -467 -55 -224 -65 -318 -65 -618 0 -382 22 -502
179 -991 130 -405 162 -541 172 -749 l6 -115 -48 65 c-167 227 -398 473 -579
616 -309 245 -620 374 -898 374 -137 0 -233 -22 -357 -82 -93 -45 -115 -61
-195 -142 -129 -131 -201 -267 -240 -451 -24 -116 -23 -314 3 -435 53 -243
121 -371 356 -665 97 -123 155 -212 186 -287 13 -32 34 -67 46 -79 20 -19 23
-19 38 -4 27 28 20 120 -21 273 -36 132 -37 143 -37 307 -1 192 12 256 82 390
55 105 173 220 282 273 124 61 193 76 335 75 263 -1 490 -112 715 -351 113
-118 268 -310 391 -484 51 -71 95 -131 99 -133 4 -3 22 35 40 83 179 480 364
828 661 1242 459 640 571 916 556 1360 -13 338 -75 624 -202 920 -92 216 -240
451 -501 795 -50 66 -103 143 -119 170 -33 58 -54 85 -67 85 -5 0 -26 -28 -46
-62z"/>
<path d="M4991 3025 c-432 -76 -912 -431 -1301 -960 -85 -117 -150 -218 -259
-409 -467 -816 -551 -1398 -222 -1550 38 -17 64 -21 151 -21 89 1 112 4 152
24 155 75 205 295 88 382 -14 11 -50 24 -80 31 -117 24 -181 -15 -226 -140
-15 -42 -34 -85 -43 -95 -21 -25 -60 -18 -85 16 -31 42 -30 209 2 326 74 271
253 615 447 856 186 231 425 470 562 562 172 115 307 157 503 158 155 0 218
-13 339 -73 107 -52 232 -177 283 -282 66 -137 73 -174 72 -375 0 -175 -1
-184 -37 -317 -40 -148 -46 -221 -22 -255 24 -34 41 -19 86 74 49 105 84 156
232 346 179 228 251 360 297 545 81 326 26 639 -156 878 -96 126 -208 205
-364 255 -117 38 -284 47 -419 24z"/>
</g>
</svg>
